<svg xmlns="http://www.w3.org/2000/svg" viewBox="0 0 52.75 52.76">
	<defs>
		<style>.cls-1{fill:#f99d1c;}</style>
	</defs>
	<g id="Layer_2" data-name="Layer 2">
		<g id="Layer_1-2" data-name="Layer 1">
			<path class="cls-1" d="M42.07,42a2.51,2.51,0,1,0,3.57.06A2.46,2.46,0,0,0,42.07,42Z"/>
			<path class="cls-1" d="M24.34,45.88a3,3,0,1,0,4.17.1A3,3,0,0,0,24.34,45.88Z"/>
			<path class="cls-1" d="M35.11,43a3,3,0,0,0,4.22,4.29A3,3,0,0,0,35.11,43Z"/>
			<path class="cls-1" d="M28.51,6.82a2.93,2.93,0,0,0,.06-4.21,3,3,0,0,0-4.22-.06,3,3,0,1,0,4.16,4.27Z"/>
			<path class="cls-1" d="M43.12,13.42a3,3,0,1,0,4.26.06A3,3,0,0,0,43.12,13.42Z"/>
			<path class="cls-1" d="M43,35.15a3,3,0,0,0,4.29,4.2A3,3,0,0,0,43,35.15Z"/>
			<path class="cls-1" d="M2.71,24.15a3,3,0,0,0-.18,4.23,3,3,0,1,0,4.32-4.09A2.91,2.91,0,0,0,2.71,24.15Z"/>
			<path class="cls-1"
				  d="M35.2,9.75a3,3,0,0,0,4.23-.06,3,3,0,0,0-.07-4.25,3.07,3.07,0,0,0-4.25.07A3,3,0,0,0,35.2,9.75Z"/>
			<path class="cls-1" d="M17.72,9.7a3,3,0,0,0,0-4.23,3,3,0,0,0-4.19,4.24A3,3,0,0,0,17.72,9.7Z"/>
			<path class="cls-1"
				  d="M50.16,28.56a2.94,2.94,0,0,0,.05-4.23,3,3,0,0,0-4.16-.11,3,3,0,0,0-.13,4.25A3,3,0,0,0,50.16,28.56Z"/>
			<path class="cls-1" d="M9.7,17.68a3,3,0,0,0,.08-4.26,3,3,0,0,0-4.35,4.14A3.06,3.06,0,0,0,9.7,17.68Z"/>
			<path class="cls-1"
				  d="M17.66,43a3,3,0,0,0-4.23,0,2.94,2.94,0,0,0,0,4.21,3,3,0,0,0,4.24,0A3.07,3.07,0,0,0,17.66,43Z"/>
			<path class="cls-1"
				  d="M9.74,39.27A3,3,0,0,0,9.67,35a3,3,0,0,0-4.18,0,3,3,0,0,0,0,4.24A2.94,2.94,0,0,0,9.74,39.27Z"/>
			<path class="cls-1" d="M32.59,11.53a2.52,2.52,0,1,0-3.52-3.61,2.52,2.52,0,1,0,3.52,3.61Z"/>
			<path class="cls-1"
				  d="M7.9,20.16a2.49,2.49,0,0,0,0,3.51,2.51,2.51,0,1,0,3.57-3.54A2.48,2.48,0,0,0,7.9,20.16Z"/>
			<path class="cls-1" d="M11.5,29a2.54,2.54,0,1,0,0,3.59A2.53,2.53,0,0,0,11.5,29Z"/>
			<path class="cls-1" d="M36.79,12.41A2.52,2.52,0,0,0,40.31,16a2.52,2.52,0,1,0-3.52-3.6Z"/>
			<path class="cls-1"
				  d="M29.05,44.81a2.52,2.52,0,0,0,3.58,0,2.49,2.49,0,0,0,0-3.57,2.52,2.52,0,1,0-3.57,3.55Z"/>
			<path class="cls-1" d="M20.05,41.33a2.52,2.52,0,0,0,3.68,3.44,2.52,2.52,0,1,0-3.68-3.44Z"/>
			<path class="cls-1" d="M41.29,20.1a2.52,2.52,0,1,0,3.48,3.64,2.52,2.52,0,1,0-3.48-3.64Z"/>
			<path class="cls-1" d="M23.73,8a2.52,2.52,0,1,0-.05,3.58A2.53,2.53,0,0,0,23.73,8Z"/>
			<path class="cls-1"
				  d="M44.78,32.67a2.49,2.49,0,0,0,.06-3.57,2.53,2.53,0,0,0-3.58-.1,2.56,2.56,0,0,0,0,3.59A2.49,2.49,0,0,0,44.78,32.67Z"/>
			<path class="cls-1" d="M31,48.42a2.53,2.53,0,0,0,3.51,3.64A2.53,2.53,0,1,0,31,48.42Z"/>
			<path class="cls-1"
				  d="M52,30.94a2.53,2.53,0,0,0-3.58.07,2.49,2.49,0,0,0,.1,3.57A2.46,2.46,0,0,0,52,34.52,2.51,2.51,0,0,0,52,30.94Z"/>
			<path class="cls-1"
				  d="M36.78,36.75a2.54,2.54,0,0,0,0,3.58,2.52,2.52,0,1,0,3.61-3.51A2.54,2.54,0,0,0,36.78,36.75Z"/>
			<path class="cls-1" d="M48.38,21.72a2.53,2.53,0,1,0,.06-3.51A2.51,2.51,0,0,0,48.38,21.72Z"/>
			<path class="cls-1" d="M18.17,48.48a2.5,2.5,0,0,0,0,3.52,2.53,2.53,0,0,0,3.6,0,2.52,2.52,0,1,0-3.6-3.53Z"/>
			<path class="cls-1" d="M16,40.34a2.52,2.52,0,1,0-3.5.08A2.45,2.45,0,0,0,16,40.34Z"/>
			<path class="cls-1" d="M7.16,42a2.52,2.52,0,1,0,3.55,3.58A2.52,2.52,0,0,0,7.16,42Z"/>
			<path class="cls-1"
				  d="M4.33,31a2.47,2.47,0,0,0-3.51-.09,2.54,2.54,0,0,0-.13,3.59,2.49,2.49,0,0,0,3.58.07A2.47,2.47,0,0,0,4.33,31Z"/>
			<path class="cls-1" d="M45.56,10.76A2.52,2.52,0,1,0,42,10.64,2.48,2.48,0,0,0,45.56,10.76Z"/>
			<path class="cls-1"
				  d="M34.55,4.31a2.48,2.48,0,0,0,0-3.51A2.52,2.52,0,1,0,31,4.31,2.46,2.46,0,0,0,34.55,4.31Z"/>
			<path class="cls-1" d="M16,16a2.52,2.52,0,1,0-3.57-3.55,2.46,2.46,0,0,0,0,3.5A2.49,2.49,0,0,0,16,16Z"/>
			<path class="cls-1"
				  d="M21.75,4.34A2.53,2.53,0,0,0,18.25.69a2.5,2.5,0,0,0-.08,3.59A2.47,2.47,0,0,0,21.75,4.34Z"/>
			<path class="cls-1"
				  d="M4.3,21.78a2.48,2.48,0,0,0,.07-3.51,2.52,2.52,0,0,0-3.59-.12,2.55,2.55,0,0,0-.07,3.6A2.51,2.51,0,0,0,4.3,21.78Z"/>
			<path class="cls-1" d="M10.64,10.75A2.51,2.51,0,1,0,7.15,7.14a2.51,2.51,0,0,0,3.49,3.61Z"/>
		</g>
	</g>
</svg>
