<svg xmlns="http://www.w3.org/2000/svg" viewBox="0 0 411.31 80.91">
	<defs>
		<style>.cls-1{fill:#fff;}.cls-2{fill:#f99d1c;}</style>
	</defs>
	<g id="Layer_2" data-name="Layer 2">
		<g id="Layer_1-2" data-name="Layer 1">
			<path class="cls-1"
				  d="M34.88,13.44c0,6.64-3.17,10-5.89,11.63,3.25,1.35,7.85,5.36,7.85,13,0,11.25-9.51,14.8-17.21,14.8H0V0H19.71C28.92,0,34.88,4.83,34.88,13.44ZM10.65,9.06V21.52h7.7c3.54,0,6-2.12,6-6.19,0-4.53-2.34-6.27-6.57-6.27Zm0,21.06V43.64H18c3.85,0,7.93-.91,7.93-6.72,0-5.59-4-6.8-7.4-6.8Z"/>
			<path class="cls-1"
				  d="M101.73,0h10l17.74,34.13a110.31,110.31,0,0,1-1-14.73V0H139.1V52.85h-10L111.39,18.72a99.7,99.7,0,0,1,1,14.73v19.4H101.73Z"/>
			<path class="cls-1" d="M146,0h29.9V9.66H156.62V21.52H173.9V31H156.62V43.11h19.7v9.74H146Z"/>
			<path class="cls-1" d="M225.68,52.85h-4.53V28.46H196.69V52.85h-4.53V0h4.53V24.16h24.46V0h4.53Z"/>
			<path class="cls-1" d="M232.26,0h27.19V4.3H236.79V24.08h20.39v4.31H236.79V48.55H260v4.3H232.26Z"/>
			<path class="cls-1"
				  d="M284.09,0h4.84l17.82,52.85H302l-4.61-14.12H275.64L271,52.85h-4.75ZM296,34.58l-7.7-23.25c-.68-2.12-1.28-4.16-1.81-6.2-.53,2-1.13,4.08-1.81,6.2L277,34.58Z"/>
			<path class="cls-1" d="M317.7,48.55h22.95v4.3H313.17V0h4.53Z"/>
			<path class="cls-1" d="M351.92,4.3H337.35V0H371V4.3H356.45V52.85h-4.53Z"/>
			<path class="cls-1" d="M411.3,52.85h-4.53V28.46H382.31V52.85h-4.53V0h4.53V24.16h24.46V0h4.53Z"/>
			<path class="cls-2" d="M84.51,42.05a2.52,2.52,0,1,0,3.58.07A2.47,2.47,0,0,0,84.51,42.05Z"/>
			<path class="cls-2" d="M66.78,45.9A3,3,0,1,0,71,46,3,3,0,0,0,66.78,45.9Z"/>
			<path class="cls-2" d="M77.56,43.05a3,3,0,0,0,4.21,4.3,3,3,0,0,0-4.21-4.3Z"/>
			<path class="cls-2"
				  d="M71,6.84A2.92,2.92,0,0,0,71,2.63a3,3,0,0,0-4.22-.07,3,3,0,0,0-.06,4.24A3,3,0,0,0,71,6.84Z"/>
			<path class="cls-2" d="M85.57,13.44a3,3,0,1,0,4.25.06A3,3,0,0,0,85.57,13.44Z"/>
			<path class="cls-2" d="M85.48,35.17a3,3,0,0,0,4.28,4.2,3,3,0,1,0-4.28-4.2Z"/>
			<path class="cls-2" d="M45.15,24.17a3,3,0,1,0,4.15.14A2.91,2.91,0,0,0,45.15,24.17Z"/>
			<path class="cls-2"
				  d="M77.64,9.77a3,3,0,0,0,4.23-.06,3,3,0,0,0-.06-4.25,3.08,3.08,0,0,0-4.26.07A3,3,0,0,0,77.64,9.77Z"/>
			<path class="cls-2" d="M60.16,9.71a3,3,0,0,0,0-4.23,3,3,0,0,0-4.2,4.25A3,3,0,0,0,60.16,9.71Z"/>
			<path class="cls-2"
				  d="M92.6,28.58a2.94,2.94,0,0,0,.06-4.23,3,3,0,0,0-4.17-.12,3,3,0,0,0-.13,4.26A3,3,0,0,0,92.6,28.58Z"/>
			<path class="cls-2" d="M52.14,17.7a3,3,0,0,0,.09-4.26,3,3,0,0,0-4.36,4.14A3.07,3.07,0,0,0,52.14,17.7Z"/>
			<path class="cls-2" d="M60.1,43a3,3,0,0,0-4.24,4.24,3,3,0,0,0,4.24,0A3.07,3.07,0,0,0,60.1,43Z"/>
			<path class="cls-2"
				  d="M52.18,39.29a3,3,0,0,0-.06-4.24,3,3,0,0,0-4.19.05,3,3,0,0,0,0,4.24A2.94,2.94,0,0,0,52.18,39.29Z"/>
			<path class="cls-2" d="M75,11.55a2.52,2.52,0,1,0-3.51-3.62A2.52,2.52,0,1,0,75,11.55Z"/>
			<path class="cls-2" d="M50.34,20.17a2.49,2.49,0,0,0,0,3.51,2.51,2.51,0,1,0,0-3.51Z"/>
			<path class="cls-2" d="M53.94,29.05a2.54,2.54,0,1,0,0,3.6A2.54,2.54,0,0,0,53.94,29.05Z"/>
			<path class="cls-2"
				  d="M79.23,12.43A2.52,2.52,0,0,0,82.76,16a2.49,2.49,0,0,0,0-3.58A2.46,2.46,0,0,0,79.23,12.43Z"/>
			<path class="cls-2"
				  d="M71.49,44.83a2.52,2.52,0,0,0,3.58,0,2.54,2.54,0,0,0-3.58-3.6A2.52,2.52,0,0,0,71.49,44.83Z"/>
			<path class="cls-2" d="M62.49,41.35a2.52,2.52,0,1,0,3.6-.16A2.52,2.52,0,0,0,62.49,41.35Z"/>
			<path class="cls-2" d="M83.74,20.11a2.52,2.52,0,1,0,3.47,3.65,2.52,2.52,0,1,0-3.47-3.65Z"/>
			<path class="cls-2" d="M66.17,8a2.52,2.52,0,1,0,0,3.58A2.5,2.5,0,0,0,66.17,8Z"/>
			<path class="cls-2"
				  d="M87.23,32.69A2.54,2.54,0,0,0,83.71,29a2.54,2.54,0,0,0,0,3.58A2.49,2.49,0,0,0,87.23,32.69Z"/>
			<path class="cls-2"
				  d="M73.43,48.43a2.53,2.53,0,0,0,3.51,3.65A2.48,2.48,0,0,0,77,48.5,2.51,2.51,0,0,0,73.43,48.43Z"/>
			<path class="cls-2" d="M94.41,31a2.52,2.52,0,0,0-3.58.07A2.53,2.53,0,1,0,94.41,31Z"/>
			<path class="cls-2"
				  d="M79.23,36.77a2.53,2.53,0,0,0,0,3.58,2.52,2.52,0,1,0,3.61-3.52A2.54,2.54,0,0,0,79.23,36.77Z"/>
			<path class="cls-2"
				  d="M90.82,21.74a2.52,2.52,0,0,0,3.67,0,2.55,2.55,0,0,0,0-3.53,2.53,2.53,0,0,0-3.65,3.5Z"/>
			<path class="cls-2"
				  d="M60.62,48.5a2.49,2.49,0,0,0,0,3.51,2.53,2.53,0,0,0,3.6,0,2.49,2.49,0,0,0,0-3.58A2.45,2.45,0,0,0,60.62,48.5Z"/>
			<path class="cls-2" d="M58.42,40.35a2.52,2.52,0,1,0-3.63-3.49,2.52,2.52,0,0,0,3.63,3.49Z"/>
			<path class="cls-2" d="M49.6,42a2.53,2.53,0,1,0,3.59.07A2.51,2.51,0,0,0,49.6,42Z"/>
			<path class="cls-2"
				  d="M46.77,31a2.47,2.47,0,0,0-3.5-.08,2.54,2.54,0,0,0-.14,3.59,2.51,2.51,0,0,0,3.59.07A2.48,2.48,0,0,0,46.77,31Z"/>
			<path class="cls-2"
				  d="M88,10.78a2.51,2.51,0,0,0,.08-3.59,2.52,2.52,0,0,0-3.66,3.47A2.49,2.49,0,0,0,88,10.78Z"/>
			<path class="cls-2"
				  d="M77,4.32A2.49,2.49,0,0,0,77,.81,2.52,2.52,0,0,0,73.44.74a2.49,2.49,0,0,0,0,3.58A2.46,2.46,0,0,0,77,4.32Z"/>
			<path class="cls-2" d="M58.39,16a2.52,2.52,0,1,0-3.58,0A2.48,2.48,0,0,0,58.39,16Z"/>
			<path class="cls-2"
				  d="M64.19,4.36A2.53,2.53,0,0,0,60.69.71a2.49,2.49,0,0,0-.08,3.58A2.46,2.46,0,0,0,64.19,4.36Z"/>
			<path class="cls-2"
				  d="M46.74,21.79a2.47,2.47,0,0,0,.08-3.5,2.52,2.52,0,1,0-3.66,3.47A2.48,2.48,0,0,0,46.74,21.79Z"/>
			<path class="cls-2" d="M53.09,10.77a2.51,2.51,0,1,0-3.58-.11A2.48,2.48,0,0,0,53.09,10.77Z"/>
			<path class="cls-1"
				  d="M272.51,62.05h3l5.93,18.52h-3l-1.19-4h-6.45l-1.22,4h-3Zm4,12-1.61-5.45c-.32-1.09-.64-2.2-.88-3.37-.26,1.17-.55,2.28-.87,3.37L271.53,74Z"/>
			<path class="cls-1"
				  d="M285.31,74.8V62.05h2.88V74.62c0,2.59,1.27,3.54,3.33,3.54s3.34-1,3.34-3.54V62.05h2.88V74.8c0,4.45-2.72,6.11-6.22,6.11S285.31,79.25,285.31,74.8Z"/>
			<path class="cls-1"
				  d="M303,79.64V76.81a9.79,9.79,0,0,0,5,1.35c1.93,0,3.28-.79,3.28-2.48,0-3.89-8.73-2.84-8.73-8.76,0-3.57,2.86-5.21,5.9-5.21A8.78,8.78,0,0,1,313,63v2.78a8.33,8.33,0,0,0-4.39-1.3c-1.77,0-3.17.72-3.17,2.41,0,3.52,8.76,2.75,8.76,8.76,0,3.7-2.84,5.31-6,5.31A9.75,9.75,0,0,1,303,79.64Z"/>
			<path class="cls-1" d="M322.65,64.8H318V62.05h12.22V64.8h-4.66V80.57h-2.91Z"/>
			<path class="cls-1"
				  d="M335.29,62.05h6.08c3.2,0,6.06,1.85,6.06,5.79a5.24,5.24,0,0,1-3.49,5.35l4.23,7.38h-3.28L341,73.64h-2.81v6.93h-2.88ZM341.4,71a3.1,3.1,0,1,0,0-6.19h-3.23V71Z"/>
			<path class="cls-1"
				  d="M359.13,62.05h3l5.92,18.52h-3l-1.19-4h-6.46l-1.21,4h-3Zm4,12-1.62-5.45c-.31-1.09-.63-2.2-.87-3.37-.26,1.17-.56,2.28-.87,3.37L358.15,74Z"/>
			<path class="cls-1" d="M376,77.82h7.22v2.75H373.15V62.05H376Z"/>
			<path class="cls-1" d="M391.24,80.57h-2.88V62.05h2.88Z"/>
			<path class="cls-1"
				  d="M402.34,62.05h3l5.93,18.52h-3l-1.19-4h-6.45l-1.22,4h-3Zm4,12-1.61-5.45c-.32-1.09-.64-2.2-.87-3.37-.27,1.17-.56,2.28-.88,3.37L401.36,74Z"/>
		</g>
	</g>
</svg>
